<?xml version="1.0" encoding="iso-8859-1"?>
<!-- Uploaded to: SVG Repo, www.svgrepo.com, Generator: SVG Repo Mixer Tools -->
<svg height="800px" width="800px" version="1.1" id="Layer_1" xmlns="http://www.w3.org/2000/svg" xmlns:xlink="http://www.w3.org/1999/xlink" 
	 viewBox="0 0 511.993 511.993" xml:space="preserve">
<g>
	<path style="fill:#AAB2BC;" d="M469.32,106.671c-5.891,0-10.656-4.773-10.656-10.664V85.336c0-5.891,4.766-10.664,10.656-10.664
		s10.672,4.773,10.672,10.664v10.671C479.992,101.898,475.211,106.671,469.32,106.671z"/>
	<path style="fill:#AAB2BC;" d="M67.437,117.897c-23.203-7.836-24.719-21.952-24.781-22.554c0.016,0.172,0.016,0.258,0.016,0.258
		l0,0c-0.219-5.703-4.89-10.266-10.64-10.266c-5.906,0-10.672,4.781-10.672,10.671c0,0.133,0.016,0.266,0.016,0.398H21.36
		c0.047,1.359,0.578,8.594,5.875,17.226c4.656,7.594,14.234,18.008,33.359,24.477c1.141,0.383,2.297,0.562,3.422,0.562
		c4.453,0,8.593-2.805,10.109-7.25C75.999,125.835,73.015,119.788,67.437,117.897z"/>
</g>
<path style="fill:#434A54;" d="M232.028,248.966c-20.422-23.289-9.359-51.569-8.828-52.897c2.234-5.422-0.328-11.648-5.75-13.914
	c-5.438-2.266-11.687,0.297-13.953,5.734c-0.703,1.688-16.891,41.632,12.484,75.139c2.109,2.406,5.062,3.633,8.031,3.633
	c2.5,0,5-0.867,7.031-2.641C235.465,260.13,235.902,253.395,232.028,248.966z"/>
<path style="fill:#CCD1D9;" d="M501.32,96.007H74.686c-4.594,0-8.671,2.938-10.125,7.289l-21.328,63.999
	c-1.094,3.25-0.547,6.828,1.469,9.609c2,2.781,5.219,4.43,8.641,4.43H501.32c5.891,0,10.672-4.773,10.672-10.664v-63.999
	C511.992,100.781,507.211,96.007,501.32,96.007z"/>
<path style="fill:#AAB2BC;" d="M245.34,202.67h-67.358c-17.656,0-32,14.351-32,31.991v21.336c0,17.64,14.343,31.999,32,31.999
	h67.358c17.641,0,32-14.359,32-31.999v-21.336C277.34,217.021,262.98,202.67,245.34,202.67z M256.012,255.997
	c0,5.883-4.797,10.663-10.672,10.663h-67.358c-5.891,0-10.672-4.78-10.672-10.663v-21.336c0-5.875,4.781-10.664,10.672-10.664
	h67.358c5.875,0,10.672,4.789,10.672,10.664V255.997z"/>
<path style="fill:#CCD1D9;" d="M501.32,159.998H53.343c-5.281,0-9.688,3.852-10.516,8.921c-1.109,1.062-5.203,4.242-17.421,8.188
	c-8.703,2.797-16.734,4.414-16.812,4.43c-5,1-8.609,5.391-8.594,10.492s3.625,9.477,8.625,10.438
	c0.094,0.016,8.921,1.82,17.625,6.992c10.25,6.086,15.781,14.07,16.453,23.734c0.781,11.102-5.968,31.296-13.796,54.679
	C16.031,326.309,0.016,374.15,0.016,426.65c0,5.906,4.781,10.672,10.672,10.672H138.67c5.234,0,9.703-3.797,10.531-8.969
	c0.094-0.516,8.718-53.578,22.109-105.826c7.766-30.375,15.562-54.445,23.171-71.577c11.657-26.219,18.797-26.953,18.859-26.953
	h287.98c5.891,0,10.672-4.773,10.672-10.664v-42.664C511.992,164.78,507.211,159.998,501.32,159.998z"/>
<path style="fill:#ED5564;" d="M42.703,233.192c0.781,11.102-5.968,31.296-13.796,54.679C16.031,326.309,0.016,374.15,0.016,426.65
	c0,5.906,4.781,10.672,10.672,10.672H138.67c5.234,0,9.703-3.797,10.531-8.969c0.094-0.516,8.718-53.578,22.109-105.826
	c7.766-30.375,15.562-54.445,23.171-71.577c11.657-26.219,18.797-26.953,18.859-26.953H40.359
	C41.687,226.864,42.484,229.927,42.703,233.192z"/>
<path style="fill:#AAB2BC;" d="M245.34,106.671h42.656c5.891,0,10.672-4.773,10.672-10.664h-64
	C234.668,101.898,239.449,106.671,245.34,106.671z"/>
<g>
	<path style="fill:#DA4453;" d="M64.015,277.34c5.89,0,10.671-4.781,10.671-10.68c0-5.89-4.781-10.663-10.671-10.663
		c-5.891,0-10.672,4.773-10.672,10.663C53.343,272.559,58.124,277.34,64.015,277.34z"/>
	<path style="fill:#DA4453;" d="M106.686,277.34c5.891,0,10.656-4.781,10.656-10.68c0-5.89-4.766-10.663-10.656-10.663
		c-5.906,0-10.671,4.773-10.671,10.663C96.015,272.559,100.78,277.34,106.686,277.34z"/>
	<path style="fill:#DA4453;" d="M149.342,277.34c5.89,0,10.671-4.781,10.671-10.68c0-5.89-4.781-10.663-10.671-10.663
		c-5.891,0-10.672,4.773-10.672,10.663C138.67,272.559,143.451,277.34,149.342,277.34z"/>
	<path style="fill:#DA4453;" d="M42.687,319.996c5.891,0,10.656-4.781,10.656-10.672s-4.766-10.672-10.656-10.672
		s-10.671,4.781-10.671,10.672S36.797,319.996,42.687,319.996z"/>
	<path style="fill:#DA4453;" d="M85.343,319.996c5.891,0,10.672-4.781,10.672-10.672s-4.781-10.672-10.672-10.672
		s-10.656,4.781-10.656,10.672S79.452,319.996,85.343,319.996z"/>
	<path style="fill:#DA4453;" d="M128.014,319.996c5.891,0,10.656-4.781,10.656-10.672s-4.766-10.672-10.656-10.672
		s-10.671,4.781-10.671,10.672S122.123,319.996,128.014,319.996z"/>
	<path style="fill:#DA4453;" d="M21.344,341.323c-5.891,0-10.656,4.781-10.656,10.672s4.765,10.656,10.656,10.656
		s10.672-4.766,10.672-10.656S27.234,341.323,21.344,341.323z"/>
	<path style="fill:#DA4453;" d="M64.015,341.323c-5.891,0-10.672,4.781-10.672,10.672s4.781,10.656,10.672,10.656
		c5.89,0,10.671-4.766,10.671-10.656S69.905,341.323,64.015,341.323z"/>
	<path style="fill:#DA4453;" d="M106.686,341.323c-5.906,0-10.671,4.781-10.671,10.672s4.765,10.656,10.671,10.656
		c5.891,0,10.656-4.766,10.656-10.656S112.577,341.323,106.686,341.323z"/>
	<path style="fill:#DA4453;" d="M149.342,341.323c-5.891,0-10.672,4.781-10.672,10.672s4.781,10.656,10.672,10.656
		c5.89,0,10.671-4.766,10.671-10.656S155.232,341.323,149.342,341.323z"/>
	<path style="fill:#DA4453;" d="M42.687,383.994c-5.89,0-10.671,4.781-10.671,10.656c0,5.906,4.781,10.672,10.671,10.672
		c5.891,0,10.656-4.766,10.656-10.672C53.343,388.775,48.578,383.994,42.687,383.994z"/>
	<path style="fill:#DA4453;" d="M85.343,383.994c-5.891,0-10.656,4.781-10.656,10.656c0,5.906,4.766,10.672,10.656,10.672
		s10.672-4.766,10.672-10.672C96.015,388.775,91.233,383.994,85.343,383.994z"/>
	<path style="fill:#DA4453;" d="M128.014,383.994c-5.89,0-10.671,4.781-10.671,10.656c0,5.906,4.781,10.672,10.671,10.672
		c5.891,0,10.656-4.766,10.656-10.672C138.67,388.775,133.904,383.994,128.014,383.994z"/>
</g>
<g>
	<path style="fill:#E6E9ED;" d="M170.685,96.007c0,0.578,0.031,1.164,0.141,1.75l9.375,56.241h21.625l-9.672-57.991
		C192.154,96.007,170.685,96.007,170.685,96.007z"/>
	<path style="fill:#E6E9ED;" d="M138.67,96.007c0,0.578,0.047,1.164,0.141,1.75l9.375,56.241h21.625l-9.672-57.991
		C160.139,96.007,138.67,96.007,138.67,96.007z"/>
	<path style="fill:#E6E9ED;" d="M106.67,96.007c0,0.578,0.031,1.164,0.125,1.75l9.375,56.241h21.625l-9.656-57.991
		C128.139,96.007,106.67,96.007,106.67,96.007z"/>
	<path style="fill:#E6E9ED;" d="M396.213,156.17l23.344-17.5h92.436v-21.336h-95.998c-2.312,0-4.547,0.75-6.391,2.133l-42.672,32
		c-1.656,1.25-2.844,2.891-3.547,4.703H396.213z"/>
</g>
<path style="fill:#AAB2BC;" d="M511.992,168.92v-21.335H49.796l-6.562,19.71c-0.188,0.531-0.312,1.078-0.406,1.625H511.992z"/>
</svg>